<svg xmlns="http://www.w3.org/2000/svg" viewBox="0 0 680 220" width="680" height="220">
  <rect width="680" height="220" fill="#0f1117" rx="10"/>
  <text x="340" y="18" text-anchor="middle" font-family="system-ui,-apple-system,sans-serif" font-size="12" fill="#6b7a99">NFA&#xC758; &#xBE44;&#xACB0;&#xC815;&#xC131; &#x2014; &#xB3D9;&#xC2DC;&#xC5D0; &#xC5EC;&#xB7EC; &#xACBD;&#xB85C; &#xD0D0;&#xC0C9;</text>
  <defs>
    <marker id="arr" markerWidth="8" markerHeight="8" refX="7" refY="4" orient="auto">
      <polygon points="0,0 7,4 0,8" fill="#4a5568"/>
    </marker>
    <marker id="arr-green" markerWidth="8" markerHeight="8" refX="7" refY="4" orient="auto">
      <polygon points="0,0 7,4 0,8" fill="#4ade80"/>
    </marker>
  </defs>
  <line x1="35" y1="112" x2="62" y2="112" stroke="#4a5568" stroke-width="1.5" marker-end="url(#arr)"/>
  <circle cx="90" cy="112" r="28" fill="#1a2035" stroke="#94a3b8" stroke-width="1.5"/>
  <text x="90" y="117" text-anchor="middle" font-family="system-ui,-apple-system,sans-serif" font-size="15" fill="#e2e8f0">q</text>
  <circle cx="280" cy="68" r="26" fill="#1a2035" stroke="#94a3b8" stroke-width="1.5"/>
  <text x="280" y="73" text-anchor="middle" font-family="system-ui,-apple-system,sans-serif" font-size="15" fill="#e2e8f0">r</text>
  <circle cx="280" cy="158" r="26" fill="#1a2035" stroke="#94a3b8" stroke-width="1.5"/>
  <text x="280" y="163" text-anchor="middle" font-family="system-ui,-apple-system,sans-serif" font-size="15" fill="#e2e8f0">s</text>
  <circle cx="450" cy="68" r="26" fill="#1a2035" stroke="#4ade80" stroke-width="2"/>
  <circle cx="450" cy="68" r="19" fill="none" stroke="#4ade80" stroke-width="1.2"/>
  <text x="450" y="73" text-anchor="middle" font-family="system-ui,-apple-system,sans-serif" font-size="13" fill="#4ade80">qf</text>
  <circle cx="450" cy="158" r="26" fill="#1a2035" stroke="#f87171" stroke-width="2"/>
  <text x="450" y="163" text-anchor="middle" font-family="system-ui,-apple-system,sans-serif" font-size="15" fill="#f87171">X</text>
  <path d="M 115,98 C 160,68 220,68 252,68" fill="none" stroke="#4a5568" stroke-width="1.5" marker-end="url(#arr)"/>
  <text x="180" y="62" text-anchor="middle" font-family="system-ui,-apple-system,sans-serif" font-size="13" fill="#e2e8f0">a</text>
  <path d="M 115,126 C 160,158 220,158 252,158" fill="none" stroke="#4a5568" stroke-width="1.5" marker-end="url(#arr)"/>
  <text x="180" y="175" text-anchor="middle" font-family="system-ui,-apple-system,sans-serif" font-size="13" fill="#e2e8f0">a</text>
  <line x1="306" y1="68" x2="422" y2="68" stroke="#4ade80" stroke-width="1.5" marker-end="url(#arr-green)"/>
  <line x1="306" y1="158" x2="422" y2="158" stroke="#f87171" stroke-width="1.5" marker-end="url(#arr)"/>
  <text x="280" y="48" text-anchor="middle" font-family="system-ui,-apple-system,sans-serif" font-size="11" fill="#4ade80">&#xACBD;&#xB85C; 1 (accept)</text>
  <text x="280" y="200" text-anchor="middle" font-family="system-ui,-apple-system,sans-serif" font-size="11" fill="#f87171">&#xACBD;&#xB85C; 2 (dead end)</text>
  <rect x="496" y="88" width="168" height="48" rx="8" fill="rgba(74,222,128,0.12)" stroke="#4ade80" stroke-width="1.5"/>
  <text x="580" y="116" text-anchor="middle" font-family="system-ui,-apple-system,sans-serif" font-size="15" font-weight="700" fill="#4ade80">&#x2192; ACCEPT</text>
  <text x="340" y="213" text-anchor="middle" font-family="system-ui,-apple-system,sans-serif" font-size="11" fill="#6b7a99">&#xD558;&#xB098;&#xB77C;&#xB3C4; accept&#xC774;&#xBA74; &#xC804;&#xCCB4; ACCEPT</text>
</svg>
