<svg xmlns="http://www.w3.org/2000/svg" viewBox="0 0 780 195" width="1170" height="293">
  <rect width="780" height="195" fill="#0f1117" rx="10"/>
  <text x="390" y="18" text-anchor="middle" fill="#6b7a99" font-size="9.6" font-family="system-ui,-apple-system,sans-serif">L₁₃ 실행 예시 — '012' 입력: 헤드 이동 과정</text>
  <text x="390" y="42" text-anchor="middle" fill="#6b7a99" font-size="8.8" font-family="system-ui,-apple-system,sans-serif">Before</text>
  <rect x="110" y="50" width="80" height="40" fill="#1a2035" stroke="#4a5568" stroke-width="1"/>
  <text x="150" y="74" text-anchor="middle" fill="#fb923c" font-size="11.2" font-family="system-ui,-apple-system,sans-serif">3</text>
  <rect x="190" y="50" width="80" height="40" fill="#1a2035" stroke="#4a5568" stroke-width="1"/>
  <text x="230" y="74" text-anchor="middle" fill="#fb923c" font-size="11.2" font-family="system-ui,-apple-system,sans-serif">4</text>
  <rect x="270" y="50" width="80" height="40" fill="#1a2035" stroke="#4a5568" stroke-width="1"/>
  <text x="310" y="74" text-anchor="middle" fill="#fb923c" font-size="11.2" font-family="system-ui,-apple-system,sans-serif">3</text>
  <rect x="350" y="50" width="80" height="40" fill="#1a2035" stroke="#a78bfa" stroke-width="1"/>
  <text x="390" y="74" text-anchor="middle" fill="#a78bfa" font-size="11.2" font-family="system-ui,-apple-system,sans-serif">2</text>
  <rect x="430" y="50" width="80" height="40" fill="#1e2d4a" stroke="#60a5fa" stroke-width="2.5"/>
  <text x="470" y="74" text-anchor="middle" fill="#60a5fa" font-size="12.8" font-weight="700" font-family="system-ui,-apple-system,sans-serif">0</text>
  <rect x="510" y="50" width="80" height="40" fill="#1a2035" stroke="#4a5568" stroke-width="1"/>
  <text x="550" y="74" text-anchor="middle" fill="#cbd5e0" font-size="11.2" font-family="system-ui,-apple-system,sans-serif">1</text>
  <rect x="590" y="50" width="80" height="40" fill="#1a2035" stroke="#a78bfa" stroke-width="1"/>
  <text x="630" y="74" text-anchor="middle" fill="#a78bfa" font-size="11.2" font-family="system-ui,-apple-system,sans-serif">2</text>
  <polygon points="462,38 478,38 470,50" fill="#60a5fa"/>
  <text x="470" y="32" text-anchor="middle" fill="#60a5fa" font-size="8" font-family="system-ui,-apple-system,sans-serif">q: 비교 중</text>
  <text x="390" y="112" text-anchor="middle" fill="#4ade80" font-size="8.8" font-family="system-ui,-apple-system,sans-serif">↓ 0 → 3으로 마킹, 복귀 시작</text>
  <text x="390" y="126" text-anchor="middle" fill="#6b7a99" font-size="8.8" font-family="system-ui,-apple-system,sans-serif">After</text>
  <rect x="110" y="134" width="80" height="40" fill="#1a2035" stroke="#4a5568" stroke-width="1"/>
  <text x="150" y="158" text-anchor="middle" fill="#fb923c" font-size="11.2" font-family="system-ui,-apple-system,sans-serif">3</text>
  <rect x="190" y="134" width="80" height="40" fill="#1a2035" stroke="#4a5568" stroke-width="1"/>
  <text x="230" y="158" text-anchor="middle" fill="#fb923c" font-size="11.2" font-family="system-ui,-apple-system,sans-serif">4</text>
  <rect x="270" y="134" width="80" height="40" fill="#1a2035" stroke="#4a5568" stroke-width="1"/>
  <text x="310" y="158" text-anchor="middle" fill="#fb923c" font-size="11.2" font-family="system-ui,-apple-system,sans-serif">3</text>
  <rect x="350" y="134" width="80" height="40" fill="#1a2035" stroke="#a78bfa" stroke-width="1"/>
  <text x="390" y="158" text-anchor="middle" fill="#a78bfa" font-size="11.2" font-family="system-ui,-apple-system,sans-serif">2</text>
  <rect x="430" y="134" width="80" height="40" fill="#1a2035" stroke="#4a5568" stroke-width="1"/>
  <text x="470" y="158" text-anchor="middle" fill="#fb923c" font-size="11.2" font-family="system-ui,-apple-system,sans-serif">3</text>
  <rect x="510" y="134" width="80" height="40" fill="#1a2035" stroke="#4a5568" stroke-width="1"/>
  <text x="550" y="158" text-anchor="middle" fill="#cbd5e0" font-size="11.2" font-family="system-ui,-apple-system,sans-serif">1</text>
  <rect x="590" y="134" width="80" height="40" fill="#1a2035" stroke="#a78bfa" stroke-width="1"/>
  <text x="630" y="158" text-anchor="middle" fill="#a78bfa" font-size="11.2" font-family="system-ui,-apple-system,sans-serif">2</text>
  <polygon points="142,122 158,122 150,134" fill="#4ade80"/>
  <text x="200" y="120" text-anchor="middle" fill="#4ade80" font-size="8" font-family="system-ui,-apple-system,sans-serif">← 왼쪽으로 복귀</text>
  <text x="390" y="186" text-anchor="middle" fill="#6b7a99" font-size="8" font-family="system-ui,-apple-system,sans-serif">3=marked 0, 4=marked 1, 2=구분자  ·  파란 셀 = 현재 헤드 위치</text>
</svg>
