<svg viewBox="0 0 720 340" width="1080" height="510" xmlns="http://www.w3.org/2000/svg" font-family="system-ui,-apple-system,sans-serif">
  <rect width="720" height="340" rx="10" fill="#0f1117"/>

  <text x="360" y="30" text-anchor="middle" fill="#e2e8f0" font-size="15" font-weight="600">접촉의 세 유형 — 지지선이 변에 밀착하면 대척점 쌍이 늘어난다</text>
  <text x="360" y="50" text-anchor="middle" fill="#64748b" font-size="11">평행한 두 지지선(파랑 점선)이 껍질에 닿는 방식</text>

  <!-- ===== 패널 A: 꼭짓점–꼭짓점 (cx=120) ===== -->
  <line x1="25" y1="90" x2="215" y2="90" stroke="#93c5fd" stroke-width="1.4" stroke-dasharray="7 5"/>
  <line x1="25" y1="250" x2="215" y2="250" stroke="#93c5fd" stroke-width="1.4" stroke-dasharray="7 5"/>
  <polygon points="120,90 185,150 170,215 120,250 70,215 55,150" fill="#1e293b40" stroke="#334155" stroke-width="1.6"/>
  <line x1="120" y1="90" x2="120" y2="250" stroke="#fbbf24" stroke-width="2.2"/>
  <g fill="#0f1117" stroke="#3b82f6" stroke-width="2"><circle cx="185" cy="150" r="4"/><circle cx="170" cy="215" r="4"/><circle cx="70" cy="215" r="4"/><circle cx="55" cy="150" r="4"/></g>
  <g fill="#0f1117" stroke="#fbbf24" stroke-width="2.6"><circle cx="120" cy="90" r="6"/><circle cx="120" cy="250" r="6"/></g>
  <text x="120" y="290" text-anchor="middle" fill="#e2e8f0" font-size="12" font-weight="600">꼭짓점–꼭짓점</text>
  <text x="120" y="310" text-anchor="middle" fill="#6ee7b7" font-size="12" font-weight="700">대척점 쌍 1개</text>

  <!-- ===== 패널 B: 꼭짓점–변 (cx=360) ===== -->
  <line x1="265" y1="90" x2="455" y2="90" stroke="#93c5fd" stroke-width="1.4" stroke-dasharray="7 5"/>
  <line x1="265" y1="250" x2="455" y2="250" stroke="#93c5fd" stroke-width="1.4" stroke-dasharray="7 5"/>
  <polygon points="325,90 395,90 420,170 360,250 300,170" fill="#1e293b40" stroke="#334155" stroke-width="1.6"/>
  <line x1="325" y1="90" x2="435" y2="90" stroke="#93c5fd" stroke-width="3"/>
  <line x1="360" y1="250" x2="325" y2="90" stroke="#fbbf24" stroke-width="2.2"/>
  <line x1="360" y1="250" x2="395" y2="90" stroke="#fbbf24" stroke-width="2.2"/>
  <g fill="#0f1117" stroke="#3b82f6" stroke-width="2"><circle cx="420" cy="170" r="4"/><circle cx="300" cy="170" r="4"/></g>
  <g fill="#0f1117" stroke="#fbbf24" stroke-width="2.6"><circle cx="325" cy="90" r="6"/><circle cx="395" cy="90" r="6"/><circle cx="360" cy="250" r="6"/></g>
  <text x="360" y="290" text-anchor="middle" fill="#e2e8f0" font-size="12" font-weight="600">꼭짓점–변</text>
  <text x="360" y="310" text-anchor="middle" fill="#6ee7b7" font-size="12" font-weight="700">대척점 쌍 2개</text>

  <!-- ===== 패널 C: 변–변 (cx=600) ===== -->
  <line x1="505" y1="90" x2="695" y2="90" stroke="#93c5fd" stroke-width="1.4" stroke-dasharray="7 5"/>
  <line x1="505" y1="250" x2="695" y2="250" stroke="#93c5fd" stroke-width="1.4" stroke-dasharray="7 5"/>
  <polygon points="565,90 635,90 645,250 555,250" fill="#1e293b40" stroke="#334155" stroke-width="1.6"/>
  <line x1="560" y1="90" x2="640" y2="90" stroke="#93c5fd" stroke-width="3"/>
  <line x1="550" y1="250" x2="650" y2="250" stroke="#93c5fd" stroke-width="3"/>
  <g stroke="#fbbf24" stroke-width="1.8">
    <line x1="565" y1="90" x2="555" y2="250"/><line x1="635" y1="90" x2="645" y2="250"/>
    <line x1="565" y1="90" x2="645" y2="250"/><line x1="635" y1="90" x2="555" y2="250"/>
  </g>
  <g fill="#0f1117" stroke="#fbbf24" stroke-width="2.6"><circle cx="565" cy="90" r="6"/><circle cx="635" cy="90" r="6"/><circle cx="645" cy="250" r="6"/><circle cx="555" cy="250" r="6"/></g>
  <text x="600" y="290" text-anchor="middle" fill="#e2e8f0" font-size="12" font-weight="600">변–변</text>
  <text x="600" y="310" text-anchor="middle" fill="#6ee7b7" font-size="12" font-weight="700">대척점 쌍 4개 (2×2)</text>
</svg>
