<svg viewBox="0 0 680 440" width="1020" height="660" xmlns="http://www.w3.org/2000/svg" font-family="system-ui,-apple-system,sans-serif">
  <rect width="680" height="440" rx="10" fill="#0f1117"/>

  <text x="340" y="30" text-anchor="middle" fill="#e2e8f0" font-size="15" font-weight="600">변–변 동률에서 대척점 쌍 열거</text>
  <text x="340" y="50" text-anchor="middle" fill="#64748b" font-size="11">평행한 두 변 사이 네 조합이 모두 대척점 — 뼈대는 일부만 기록한다</text>

  <!-- 평행 지지선(두 변의 연장) -->
  <line x1="60" y1="110" x2="620" y2="110" stroke="#93c5fd" stroke-width="1.2" stroke-dasharray="6 6" opacity="0.5"/>
  <line x1="60" y1="340" x2="620" y2="340" stroke="#93c5fd" stroke-width="1.2" stroke-dasharray="6 6" opacity="0.5"/>

  <!-- 껍질 조각(두 평행 변을 가진 사각형) -->
  <polygon points="160,340 520,340 560,110 200,110" fill="#1e293b40" stroke="#334155" stroke-width="1.6"/>

  <!-- 네 조합 -->
  <line x1="520" y1="340" x2="200" y2="110" stroke="#64748b" stroke-width="1.8" stroke-dasharray="5 4"/>
  <line x1="160" y1="340" x2="200" y2="110" stroke="#fbbf24" stroke-width="2.4" stroke-dasharray="6 4"/>
  <line x1="160" y1="340" x2="560" y2="110" stroke="#34d399" stroke-width="2.6"/>
  <line x1="520" y1="340" x2="560" y2="110" stroke="#34d399" stroke-width="2.6"/>

  <!-- 꼭짓점 -->
  <g fill="#0f1117" stroke="#3b82f6" stroke-width="2.4">
    <circle cx="160" cy="340" r="6"/><circle cx="520" cy="340" r="6"/>
    <circle cx="560" cy="110" r="6"/><circle cx="200" cy="110" r="6"/>
  </g>
  <text x="150" y="362" text-anchor="middle" fill="#93c5fd" font-size="13" font-weight="700">i</text>
  <text x="524" y="362" fill="#93c5fd" font-size="13" font-weight="700">ni</text>
  <text x="566" y="104" fill="#93c5fd" font-size="13" font-weight="700">j</text>
  <text x="196" y="102" text-anchor="end" fill="#93c5fd" font-size="13" font-weight="700">j+1</text>

  <!-- 범례 -->
  <g font-size="12">
    <line x1="200" y1="392" x2="240" y2="392" stroke="#34d399" stroke-width="2.6"/>
    <text x="248" y="396" fill="#6ee7b7">뼈대가 기록 — (i, j), (ni, j)</text>
    <line x1="200" y1="410" x2="240" y2="410" stroke="#fbbf24" stroke-width="2.4" stroke-dasharray="6 4"/>
    <text x="248" y="414" fill="#fbbf24">동률 분기로 추가 — (i, j+1)</text>
    <line x1="200" y1="428" x2="240" y2="428" stroke="#64748b" stroke-width="1.8" stroke-dasharray="5 4"/>
    <text x="248" y="432" fill="#94a3b8">다음 변에서 나옴 — (ni, j+1)</text>
  </g>
</svg>
