<svg viewBox="0 0 680 420" width="1020" height="630" xmlns="http://www.w3.org/2000/svg" font-family="system-ui,-apple-system,sans-serif">
  <rect width="680" height="420" rx="10" fill="#0f1117"/>
  <defs>
    <marker id="dw-a" markerWidth="9" markerHeight="9" refX="7" refY="4.5" orient="auto">
      <path d="M0,0 L9,4.5 L0,9 Z" fill="#fbbf24"/>
    </marker>
  </defs>

  <text x="340" y="30" text-anchor="middle" fill="#e2e8f0" font-size="15" font-weight="600">선형 워킹 — 포인터를 전진시켜 하단 공통 접선을 좁힌다</text>
  <text x="340" y="50" text-anchor="middle" fill="#64748b" font-size="11">왼쪽 최우점·오른쪽 최좌점에서 시작해 더 내려갈 수 없을 때까지 전진</text>

  <polygon points="100,240 140,160 225,135 290,215 250,315 150,330" fill="#1e293b30" stroke="#334155" stroke-width="1.6"/>
  <polygon points="400,215 455,130 560,155 600,255 540,335 430,320" fill="#1e293b30" stroke="#334155" stroke-width="1.6"/>

  <line x1="290" y1="215" x2="400" y2="215" stroke="#64748b" stroke-width="1.6" stroke-dasharray="5 4"/>
  <text x="345" y="207" text-anchor="middle" fill="#64748b" font-size="10">시작 직선</text>

  <line x1="250" y1="315" x2="430" y2="320" stroke="#fbbf24" stroke-width="2.5"/>
  <text x="340" y="348" text-anchor="middle" fill="#fbbf24" font-size="12" font-weight="700">하단 공통 접선</text>

  <path d="M290,215 Q262,270 251,309" fill="none" stroke="#fbbf24" stroke-width="2" marker-end="url(#dw-a)" stroke-dasharray="4 3"/>
  <path d="M400,215 Q413,272 429,314" fill="none" stroke="#fbbf24" stroke-width="2" marker-end="url(#dw-a)" stroke-dasharray="4 3"/>

  <g fill="#0f1117" stroke="#93c5fd" stroke-width="2.5">
    <circle cx="290" cy="215" r="6"/><circle cx="400" cy="215" r="6"/>
  </g>
  <text x="278" y="205" text-anchor="end" fill="#93c5fd" font-size="11" font-weight="600">최우점</text>
  <text x="412" y="205" text-anchor="start" fill="#93c5fd" font-size="11" font-weight="600">최좌점</text>

  <g fill="#0f1117" stroke="#fbbf24" stroke-width="2.5">
    <circle cx="250" cy="315" r="6"/><circle cx="430" cy="320" r="6"/>
  </g>

  <text x="340" y="404" text-anchor="middle" fill="#94a3b8" font-size="12">각 포인터는 한 방향으로만 돌아 전진 총횟수가 선형 — 접선 하나가 O(N)</text>
</svg>
