<svg xmlns="http://www.w3.org/2000/svg" viewBox="0 0 700 215" width="700" height="215">
  <rect width="700" height="215" fill="#0f1117" rx="10"/>
  <text x="350" y="18" text-anchor="middle" font-family="system-ui,-apple-system,sans-serif" font-size="12" fill="#6b7a99">L₃ DFA — '101'을 포함하는 문자열</text>
  <defs>
    <marker id="arr" markerWidth="8" markerHeight="8" refX="7" refY="4" orient="auto">
      <polygon points="0,0 7,4 0,8" fill="#4a5568"/>
    </marker>
  </defs>
  <line x1="28" y1="113" x2="57" y2="113" stroke="#4a5568" stroke-width="1.5" marker-end="url(#arr)"/>
  <circle cx="90" cy="113" r="30" fill="#1a2035" stroke="#94a3b8" stroke-width="1.5"/>
  <text x="90" y="110" text-anchor="middle" font-family="system-ui,-apple-system,sans-serif" font-size="13" fill="#cbd5e0">q₀</text>
  <text x="90" y="125" text-anchor="middle" font-family="system-ui,-apple-system,sans-serif" font-size="10" fill="#6b7a99">시작</text>
  <circle cx="250" cy="113" r="30" fill="#1a2035" stroke="#94a3b8" stroke-width="1.5"/>
  <text x="250" y="110" text-anchor="middle" font-family="system-ui,-apple-system,sans-serif" font-size="13" fill="#cbd5e0">q₁</text>
  <text x="250" y="125" text-anchor="middle" font-family="system-ui,-apple-system,sans-serif" font-size="10" fill="#6b7a99">prefix: 1</text>
  <circle cx="420" cy="113" r="30" fill="#1a2035" stroke="#94a3b8" stroke-width="1.5"/>
  <text x="420" y="110" text-anchor="middle" font-family="system-ui,-apple-system,sans-serif" font-size="13" fill="#cbd5e0">q₂</text>
  <text x="420" y="125" text-anchor="middle" font-family="system-ui,-apple-system,sans-serif" font-size="10" fill="#6b7a99">prefix: 10</text>
  <circle cx="600" cy="113" r="30" fill="#1a2035" stroke="#4ade80" stroke-width="2"/>
  <circle cx="600" cy="113" r="22" fill="none" stroke="#4ade80" stroke-width="1.2"/>
  <text x="600" y="110" text-anchor="middle" font-family="system-ui,-apple-system,sans-serif" font-size="13" fill="#4ade80">q₃</text>
  <text x="600" y="125" text-anchor="middle" font-family="system-ui,-apple-system,sans-serif" font-size="10" fill="#4ade80">found 101</text>
  <path d="M 75,83 C 42,40 138,40 105,83" fill="none" stroke="#4a5568" stroke-width="1.5" marker-end="url(#arr)"/>
  <text x="90" y="38" text-anchor="middle" font-family="system-ui,-apple-system,sans-serif" font-size="14" fill="#e2e8f0">0</text>
  <path d="M 235,83 C 202,40 298,40 265,83" fill="none" stroke="#4a5568" stroke-width="1.5" marker-end="url(#arr)"/>
  <text x="250" y="38" text-anchor="middle" font-family="system-ui,-apple-system,sans-serif" font-size="14" fill="#e2e8f0">1</text>
  <path d="M 585,83 C 552,40 648,40 615,83" fill="none" stroke="#4a5568" stroke-width="1.5" marker-end="url(#arr)"/>
  <text x="600" y="38" text-anchor="middle" font-family="system-ui,-apple-system,sans-serif" font-size="13" fill="#e2e8f0">0,1</text>
  <line x1="120" y1="113" x2="218" y2="113" stroke="#4a5568" stroke-width="1.5" marker-end="url(#arr)"/>
  <text x="169" y="107" text-anchor="middle" font-family="system-ui,-apple-system,sans-serif" font-size="14" fill="#e2e8f0">1</text>
  <line x1="280" y1="113" x2="388" y2="113" stroke="#4a5568" stroke-width="1.5" marker-end="url(#arr)"/>
  <text x="334" y="107" text-anchor="middle" font-family="system-ui,-apple-system,sans-serif" font-size="14" fill="#e2e8f0">0</text>
  <line x1="450" y1="113" x2="568" y2="113" stroke="#4a5568" stroke-width="1.5" marker-end="url(#arr)"/>
  <text x="509" y="107" text-anchor="middle" font-family="system-ui,-apple-system,sans-serif" font-size="14" fill="#e2e8f0">1</text>
  <path d="M 418,143 C 418,182 90,182 90,143" fill="none" stroke="#4a5568" stroke-width="1.5" marker-end="url(#arr)"/>
  <text x="254" y="197" text-anchor="middle" font-family="system-ui,-apple-system,sans-serif" font-size="14" fill="#e2e8f0">0</text>
</svg>
