<svg xmlns="http://www.w3.org/2000/svg" viewBox="0 0 720 305" width="720" height="305">
  <rect width="720" height="305" fill="#0f1117" rx="10"/>
  <text x="360" y="18" text-anchor="middle" font-family="system-ui,-apple-system,sans-serif" font-size="12" fill="#6b7a99">L₅ DFA (일부) — 0ⁱ1ⁱ: 상태가 무한히 필요하다</text>
  <defs>
    <marker id="arr" markerWidth="8" markerHeight="8" refX="7" refY="4" orient="auto">
      <polygon points="0,0 7,4 0,8" fill="#4a5568"/>
    </marker>
    <marker id="arr-red" markerWidth="8" markerHeight="8" refX="7" refY="4" orient="auto">
      <polygon points="0,0 7,4 0,8" fill="#f87171"/>
    </marker>
  </defs>

  <circle cx="620" cy="72" r="28" fill="#1a2035" stroke="#f87171" stroke-width="1.5"/>
  <text x="620" y="68" text-anchor="middle" font-family="system-ui,-apple-system,sans-serif" font-size="12" fill="#f87171">q_d</text>
  <text x="620" y="81" text-anchor="middle" font-family="system-ui,-apple-system,sans-serif" font-size="10" fill="#f87171">reject</text>
  <path d="M 607,44 C 576,6 668,6 635,44" fill="none" stroke="#f87171" stroke-width="1.2" marker-end="url(#arr-red)"/>
  <text x="620" y="6" text-anchor="middle" font-family="system-ui,-apple-system,sans-serif" font-size="12" fill="#f87171">0,1</text>

  <line x1="22" y1="72" x2="50" y2="72" stroke="#4a5568" stroke-width="1.5" marker-end="url(#arr)"/>
  <circle cx="82" cy="72" r="28" fill="#1a2035" stroke="#4ade80" stroke-width="2"/>
  <circle cx="82" cy="72" r="20" fill="none" stroke="#4ade80" stroke-width="1.2"/>
  <text x="82" y="68" text-anchor="middle" font-family="system-ui,-apple-system,sans-serif" font-size="12" fill="#4ade80">q₀</text>
  <text x="82" y="81" text-anchor="middle" font-family="system-ui,-apple-system,sans-serif" font-size="10" fill="#4ade80">λ ★</text>

  <circle cx="230" cy="72" r="28" fill="#1a2035" stroke="#94a3b8" stroke-width="1.5"/>
  <text x="230" y="68" text-anchor="middle" font-family="system-ui,-apple-system,sans-serif" font-size="12" fill="#cbd5e0">q₁</text>
  <text x="230" y="81" text-anchor="middle" font-family="system-ui,-apple-system,sans-serif" font-size="10" fill="#6b7a99">0 하나</text>

  <circle cx="378" cy="72" r="28" fill="#1a2035" stroke="#94a3b8" stroke-width="1.5"/>
  <text x="378" y="68" text-anchor="middle" font-family="system-ui,-apple-system,sans-serif" font-size="12" fill="#cbd5e0">q₂</text>
  <text x="378" y="81" text-anchor="middle" font-family="system-ui,-apple-system,sans-serif" font-size="10" fill="#6b7a99">0 둘</text>

  <text x="500" y="77" text-anchor="middle" font-family="system-ui,-apple-system,sans-serif" font-size="22" fill="#4a5568">…</text>

  <circle cx="230" cy="178" r="28" fill="#1a2035" stroke="#4ade80" stroke-width="2"/>
  <circle cx="230" cy="178" r="20" fill="none" stroke="#4ade80" stroke-width="1.2"/>
  <text x="230" y="174" text-anchor="middle" font-family="system-ui,-apple-system,sans-serif" font-size="12" fill="#4ade80">q₁a</text>
  <text x="230" y="187" text-anchor="middle" font-family="system-ui,-apple-system,sans-serif" font-size="10" fill="#4ade80">01 ★</text>

  <circle cx="378" cy="178" r="28" fill="#1a2035" stroke="#94a3b8" stroke-width="1.5"/>
  <text x="378" y="174" text-anchor="middle" font-family="system-ui,-apple-system,sans-serif" font-size="12" fill="#cbd5e0">q₂₁</text>
  <text x="378" y="187" text-anchor="middle" font-family="system-ui,-apple-system,sans-serif" font-size="10" fill="#6b7a99">001</text>

  <circle cx="378" cy="252" r="24" fill="#1a2035" stroke="#4ade80" stroke-width="2"/>
  <circle cx="378" cy="252" r="17" fill="none" stroke="#4ade80" stroke-width="1.2"/>
  <text x="378" y="248" text-anchor="middle" font-family="system-ui,-apple-system,sans-serif" font-size="11" fill="#4ade80">q₂a</text>
  <text x="378" y="260" text-anchor="middle" font-family="system-ui,-apple-system,sans-serif" font-size="10" fill="#4ade80">0011 ★</text>

  <line x1="110" y1="72" x2="200" y2="72" stroke="#4a5568" stroke-width="1.5" marker-end="url(#arr)"/>
  <text x="155" y="65" text-anchor="middle" font-family="system-ui,-apple-system,sans-serif" font-size="13" fill="#e2e8f0">0</text>

  <line x1="258" y1="72" x2="348" y2="72" stroke="#4a5568" stroke-width="1.5" marker-end="url(#arr)"/>
  <text x="303" y="65" text-anchor="middle" font-family="system-ui,-apple-system,sans-serif" font-size="13" fill="#e2e8f0">0</text>

  <line x1="406" y1="72" x2="468" y2="72" stroke="#4a5568" stroke-width="1.5" stroke-dasharray="4,3" marker-end="url(#arr)"/>
  <text x="437" y="65" text-anchor="middle" font-family="system-ui,-apple-system,sans-serif" font-size="13" fill="#6b7a99">0</text>

  <line x1="230" y1="100" x2="230" y2="148" stroke="#4a5568" stroke-width="1.5" marker-end="url(#arr)"/>
  <text x="218" y="128" text-anchor="middle" font-family="system-ui,-apple-system,sans-serif" font-size="13" fill="#e2e8f0">1</text>

  <line x1="378" y1="100" x2="378" y2="148" stroke="#4a5568" stroke-width="1.5" marker-end="url(#arr)"/>
  <text x="366" y="128" text-anchor="middle" font-family="system-ui,-apple-system,sans-serif" font-size="13" fill="#e2e8f0">1</text>

  <line x1="378" y1="206" x2="378" y2="226" stroke="#4a5568" stroke-width="1.5" marker-end="url(#arr)"/>
  <text x="366" y="220" text-anchor="middle" font-family="system-ui,-apple-system,sans-serif" font-size="13" fill="#e2e8f0">1</text>

  <path d="M 105,57 C 200,18 530,18 592,48" fill="none" stroke="#f87171" stroke-width="1.2" stroke-dasharray="4,3" marker-end="url(#arr-red)"/>
  <text x="340" y="17" text-anchor="middle" font-family="system-ui,-apple-system,sans-serif" font-size="12" fill="#f87171">1</text>

  <path d="M 255,165 C 380,135 530,98 593,87" fill="none" stroke="#f87171" stroke-width="1.2" stroke-dasharray="4,3" marker-end="url(#arr-red)"/>
  <text x="430" y="140" text-anchor="middle" font-family="system-ui,-apple-system,sans-serif" font-size="11" fill="#f87171">0,1</text>

  <path d="M 403,166 C 480,148 555,115 594,95" fill="none" stroke="#f87171" stroke-width="1.2" stroke-dasharray="4,3" marker-end="url(#arr-red)"/>
  <text x="512" y="155" text-anchor="middle" font-family="system-ui,-apple-system,sans-serif" font-size="11" fill="#f87171">0</text>

  <path d="M 400,242 C 488,225 572,155 607,100" fill="none" stroke="#f87171" stroke-width="1.2" stroke-dasharray="4,3" marker-end="url(#arr-red)"/>
  <text x="532" y="225" text-anchor="middle" font-family="system-ui,-apple-system,sans-serif" font-size="11" fill="#f87171">0,1</text>

  <text x="360" y="295" text-anchor="middle" font-family="system-ui,-apple-system,sans-serif" font-size="11" fill="#6b7a99">★ = Accepting State  ·  빨간 점선 = dead state로의 전이  ·  각 깊이마다 새 상태 필요 → 무한 상태</text>
</svg>
