<svg viewBox="0 0 720 400" width="1080" height="600" xmlns="http://www.w3.org/2000/svg" font-family="system-ui,-apple-system,sans-serif">
  <rect width="720" height="400" rx="10" fill="#0f1117"/>
  <defs>
    <marker id="tc-up" markerWidth="9" markerHeight="9" refX="4.5" refY="8" orient="auto">
      <path d="M4.5,0 L9,9 L0,9 Z" fill="#f87171"/>
    </marker>
  </defs>

  <text x="360" y="30" text-anchor="middle" fill="#e2e8f0" font-size="15" font-weight="600">접점의 조건 — 사슬이 직선 아래에 다 들어가는 꼭짓점</text>
  <text x="360" y="50" text-anchor="middle" fill="#64748b" font-size="11">접함: 두 이웃이 모두 직선 아래 · 뚫음: 이웃이 직선 위로 삐져나옴</text>

  <!-- chain (dim) -->
  <polyline points="90,300 170,210 250,150 340,120 430,150 510,220 580,300" fill="none" stroke="#334155" stroke-width="2"/>

  <!-- non-tangent line p-6 (red dashed) -->
  <line x1="430" y1="231" x2="650" y2="200" stroke="#ef4444" stroke-width="2" stroke-dasharray="6 5"/>
  <!-- tangent line p-4 (green) -->
  <line x1="260" y1="99" x2="650" y2="200" stroke="#34d399" stroke-width="2.5"/>

  <!-- poke arrow at 5 -->
  <line x1="430" y1="150" x2="430" y2="196" stroke="#f87171" stroke-width="2" marker-end="url(#tc-up)"/>
  <text x="440" y="182" fill="#f87171" font-size="11" font-weight="600">이웃이 위로 → 뚫음</text>

  <!-- vertices -->
  <g fill="#0f1117" stroke="#64748b" stroke-width="2">
    <circle cx="90" cy="300" r="5"/><circle cx="170" cy="210" r="5"/><circle cx="250" cy="150" r="5"/>
    <circle cx="510" cy="220" r="5"/><circle cx="580" cy="300" r="5"/>
  </g>
  <circle cx="430" cy="150" r="6" fill="#1f2937" stroke="#f87171" stroke-width="2"/>
  <!-- tangent point 4 -->
  <circle cx="340" cy="120" r="7" fill="#34d399"/>
  <text x="330" y="108" text-anchor="middle" fill="#6ee7b7" font-size="12" font-weight="700">접점 t</text>
  <!-- p -->
  <circle cx="650" cy="200" r="8" fill="#93c5fd" stroke="#3b82f6" stroke-width="2"/>
  <text x="662" y="204" fill="#93c5fd" font-size="13" font-weight="700">p</text>

  <text x="360" y="384" text-anchor="middle" fill="#94a3b8" font-size="12">초록 직선은 사슬을 스치고(접선), 빨강 직선은 이웃 하나가 위로 나와 껍질을 뚫는다</text>
</svg>
