<svg viewBox="0 0 680 420" width="1020" height="630" xmlns="http://www.w3.org/2000/svg" font-family="system-ui,-apple-system,sans-serif">
  <rect width="680" height="420" rx="10" fill="#0f1117"/>

  <text x="340" y="30" text-anchor="middle" fill="#e2e8f0" font-size="15" font-weight="600">평행선 회전과 대척점 쌍 (antipodal pair)</text>
  <text x="340" y="50" text-anchor="middle" fill="#64748b" font-size="11">지름에 수직인 두 평행 지지선은 정확히 그 두 끝점(대척점 쌍)에 닿는다</text>

  <!-- 지름에 수직인 두 평행 지지선 (기울기 -4) -->
  <line x1="75" y1="370" x2="152" y2="62" stroke="#93c5fd" stroke-width="1.6" stroke-dasharray="7 5"/>
  <line x1="542" y1="372" x2="620" y2="60" stroke="#93c5fd" stroke-width="1.6" stroke-dasharray="7 5"/>
  <text x="70" y="392" fill="#93c5fd" font-size="10">지지선</text>
  <text x="560" y="392" fill="#93c5fd" font-size="10">지지선</text>

  <polygon points="150,300 120,190 230,110 400,100 540,180 560,300 350,360" fill="#1e293b40" stroke="#334155" stroke-width="1.6"/>

  <!-- 지름 = 대척점 쌍 (지지선과 수직) -->
  <line x1="120" y1="190" x2="560" y2="300" stroke="#fbbf24" stroke-width="2.6"/>
  <g fill="#0f1117" stroke="#fbbf24" stroke-width="2.6">
    <circle cx="120" cy="190" r="6"/><circle cx="560" cy="300" r="6"/>
  </g>
  <text x="330" y="228" text-anchor="middle" fill="#fbbf24" font-size="12" font-weight="700">대척점 쌍 = 지름</text>
  <text x="330" y="245" text-anchor="middle" fill="#94a3b8" font-size="11">(지지선과 수직)</text>

  <!-- 나머지 꼭짓점 -->
  <g fill="#0f1117" stroke="#3b82f6" stroke-width="2">
    <circle cx="150" cy="300" r="5"/><circle cx="230" cy="110" r="5"/><circle cx="400" cy="100" r="5"/>
    <circle cx="540" cy="180" r="5"/><circle cx="350" cy="360" r="5"/>
  </g>

  <text x="340" y="410" text-anchor="middle" fill="#94a3b8" font-size="12">가장 먼 쌍은 이렇게 어떤 각도에서 반드시 대척점 쌍으로 나타난다</text>
</svg>
