<svg viewBox="0 0 680 420" width="1020" height="630" xmlns="http://www.w3.org/2000/svg" font-family="system-ui,-apple-system,sans-serif">
  <rect width="680" height="420" rx="10" fill="#0f1117"/>
  <defs>
    <marker id="hv-a" markerWidth="9" markerHeight="9" refX="7" refY="4.5" orient="auto">
      <path d="M0,0 L9,4.5 L0,9 Z" fill="#f87171"/>
    </marker>
  </defs>

  <text x="340" y="30" text-anchor="middle" fill="#e2e8f0" font-size="15" font-weight="600">가장 먼 두 점은 껍질 꼭짓점이다</text>
  <text x="340" y="50" text-anchor="middle" fill="#64748b" font-size="11">안쪽 점은 바깥으로 밀수록 멀어져 가장 먼 쌍의 후보가 못 된다</text>

  <polygon points="150,300 120,190 230,110 400,100 540,180 560,300 350,360" fill="#1e293b40" stroke="#334155" stroke-width="1.6"/>

  <line x1="120" y1="190" x2="560" y2="300" stroke="#fbbf24" stroke-width="2.6"/>
  <text x="330" y="230" text-anchor="middle" fill="#fbbf24" font-size="12" font-weight="700">가장 먼 두 점 (지름)</text>

  <g fill="#0f1117" stroke="#3b82f6" stroke-width="2">
    <circle cx="150" cy="300" r="5"/><circle cx="230" cy="110" r="5"/><circle cx="400" cy="100" r="5"/>
    <circle cx="540" cy="180" r="5"/><circle cx="350" cy="360" r="5"/>
  </g>
  <g fill="#0f1117" stroke="#fbbf24" stroke-width="2.6">
    <circle cx="120" cy="190" r="6"/><circle cx="560" cy="300" r="6"/>
  </g>

  <circle cx="315" cy="285" r="6" fill="#ef4444"/>
  <text x="315" y="307" text-anchor="middle" fill="#f87171" font-size="12" font-weight="700">X</text>
  <line x1="315" y1="285" x2="540" y2="180" stroke="#64748b" stroke-width="1.4" stroke-dasharray="5 4"/>
  <path d="M315,285 Q250,250 205,150" fill="none" stroke="#f87171" stroke-width="2" marker-end="url(#hv-a)" stroke-dasharray="4 3"/>
  <text x="150" y="150" text-anchor="middle" fill="#f87171" font-size="11">밀수록 멀어짐</text>

  <text x="340" y="404" text-anchor="middle" fill="#94a3b8" font-size="12">그러므로 껍질 위 꼭짓점만 검사하면 된다</text>
</svg>
