<svg viewBox="0 0 760 400" width="1140" height="600" xmlns="http://www.w3.org/2000/svg" font-family="system-ui,-apple-system,sans-serif">
  <rect width="760" height="400" rx="10" fill="#0f1117"/>
  <defs>
    <marker id="dy-g" markerWidth="9" markerHeight="9" refX="7" refY="4.5" orient="auto">
      <path d="M0,0 L9,4.5 L0,9 Z" fill="#34d399"/>
    </marker>
  </defs>

  <text x="380" y="30" text-anchor="middle" fill="#e2e8f0" font-size="15" font-weight="600">Dynamic Case — 점이 추가될 때 껍질 고치기</text>
  <text x="380" y="50" text-anchor="middle" fill="#64748b" font-size="11">새 점이 껍질 안이면 그대로, 밖이면 접선 두 개로 잘라 붙인다</text>

  <!-- divider -->
  <line x1="380" y1="72" x2="380" y2="368" stroke="#334155" stroke-width="1.3" stroke-dasharray="4 4"/>

  <!-- LEFT: inside -->
  <text x="185" y="92" text-anchor="middle" fill="#93c5fd" font-size="13" font-weight="700">안쪽 추가 → 변화 없음</text>
  <polygon points="70,180 140,110 250,130 270,240 170,300 80,255"
           fill="#34d39914" stroke="#34d399" stroke-width="2.5"/>
  <g fill="#0f1117" stroke="#34d399" stroke-width="2">
    <circle cx="70" cy="180" r="5"/><circle cx="140" cy="110" r="5"/><circle cx="250" cy="130" r="5"/>
    <circle cx="270" cy="240" r="5"/><circle cx="170" cy="300" r="5"/><circle cx="80" cy="255" r="5"/>
  </g>
  <circle cx="165" cy="205" r="7" fill="none" stroke="#93c5fd" stroke-width="2" stroke-dasharray="4 3"/>
  <text x="178" y="209" fill="#93c5fd" font-size="12" font-weight="700">X</text>
  <text x="185" y="352" text-anchor="middle" fill="#94a3b8" font-size="11">X가 두 사슬 사이에 있으니 껍질 불변</text>

  <!-- RIGHT: outside -->
  <text x="575" y="92" text-anchor="middle" fill="#f87171" font-size="13" font-weight="700">바깥 추가 → 접선 2개로 splice</text>
  <polygon points="440,180 510,110 610,130 630,240 530,300 450,255"
           fill="#1e293b30" stroke="#334155" stroke-width="1.6"/>
  <!-- tangents from X -->
  <line x1="720" y1="175" x2="610" y2="130" stroke="#34d399" stroke-width="2.5" marker-end="url(#dy-g)"/>
  <line x1="720" y1="175" x2="530" y2="300" stroke="#34d399" stroke-width="2.5" marker-end="url(#dy-g)"/>
  <circle cx="610" cy="130" r="7" fill="#0f1117" stroke="#34d399" stroke-width="2.5"/>
  <circle cx="530" cy="300" r="7" fill="#0f1117" stroke="#34d399" stroke-width="2.5"/>
  <!-- kept vertices -->
  <g fill="#0f1117" stroke="#64748b" stroke-width="2">
    <circle cx="440" cy="180" r="5"/><circle cx="510" cy="110" r="5"/><circle cx="450" cy="255" r="5"/>
  </g>
  <!-- removed vertex -->
  <g stroke="#ef4444" stroke-width="2">
    <circle cx="630" cy="240" r="7" fill="#1f2937"/>
    <line x1="624" y1="234" x2="636" y2="246"/><line x1="636" y1="234" x2="624" y2="246"/>
  </g>
  <!-- X -->
  <circle cx="720" cy="175" r="8" fill="#93c5fd" stroke="#3b82f6" stroke-width="2"/>
  <text x="710" y="162" fill="#93c5fd" font-size="12" font-weight="700">X</text>
  <text x="575" y="352" text-anchor="middle" fill="#94a3b8" font-size="11">접선 사이 점을 버리고 X를 끼운다 — Plane Sweeping 한 걸음과 같다</text>
</svg>
