<svg viewBox="0 0 680 420" width="1020" height="630" xmlns="http://www.w3.org/2000/svg" font-family="system-ui,-apple-system,sans-serif">
  <rect width="680" height="420" rx="10" fill="#0f1117"/>
  <defs>
    <marker id="as-o" markerWidth="9" markerHeight="9" refX="7" refY="4.5" orient="auto">
      <path d="M0,0 L9,4.5 L0,9 Z" fill="#fbbf24"/>
    </marker>
  </defs>

  <text x="340" y="30" text-anchor="middle" fill="#e2e8f0" font-size="15" font-weight="600">각도 정렬 — 기준점에서 반시계 순서 매기기</text>
  <text x="340" y="50" text-anchor="middle" fill="#64748b" font-size="11">최하단 점 Y 기준 각도 오름차순 (비교는 각도가 아니라 CCW로)</text>

  <!-- horizontal baseline from Y -->
  <line x1="150" y1="340" x2="620" y2="340" stroke="#475569" stroke-width="1.3" stroke-dasharray="5 4"/>
  <text x="600" y="358" fill="#64748b" font-size="11">수평선(각도 0)</text>

  <!-- rays from Y to each point -->
  <g stroke="#334155" stroke-width="1">
    <line x1="150" y1="340" x2="540" y2="320"/>
    <line x1="150" y1="340" x2="520" y2="250"/>
    <line x1="150" y1="340" x2="460" y2="150"/>
    <line x1="150" y1="340" x2="360" y2="120"/>
    <line x1="150" y1="340" x2="280" y2="190"/>
    <line x1="150" y1="340" x2="230" y2="160"/>
    <line x1="150" y1="340" x2="140" y2="220"/>
  </g>

  <!-- CCW sweep arc -->
  <path d="M 260 334 A 112 112 0 0 0 176 236" fill="none" stroke="#fbbf24" stroke-width="2" marker-end="url(#as-o)"/>
  <text x="285" y="300" fill="#fbbf24" font-size="11" font-weight="600">반시계로 훑는 순서</text>

  <!-- points with order labels -->
  <g>
    <circle cx="540" cy="320" r="7" fill="#1e3a5f" stroke="#3b82f6" stroke-width="2"/>
    <text x="558" y="325" fill="#93c5fd" font-size="13" font-weight="700">1</text>
    <circle cx="520" cy="250" r="7" fill="#1e3a5f" stroke="#3b82f6" stroke-width="2"/>
    <text x="538" y="255" fill="#93c5fd" font-size="13" font-weight="700">2</text>
    <circle cx="460" cy="150" r="7" fill="#1e3a5f" stroke="#3b82f6" stroke-width="2"/>
    <text x="476" y="145" fill="#93c5fd" font-size="13" font-weight="700">3</text>
    <circle cx="360" cy="120" r="7" fill="#1e3a5f" stroke="#3b82f6" stroke-width="2"/>
    <text x="360" y="105" text-anchor="middle" fill="#93c5fd" font-size="13" font-weight="700">4</text>
    <circle cx="280" cy="190" r="7" fill="#1e3a5f" stroke="#3b82f6" stroke-width="2"/>
    <text x="296" y="185" fill="#93c5fd" font-size="13" font-weight="700">5</text>
    <circle cx="230" cy="160" r="7" fill="#1e3a5f" stroke="#3b82f6" stroke-width="2"/>
    <text x="226" y="145" text-anchor="middle" fill="#93c5fd" font-size="13" font-weight="700">6</text>
    <circle cx="140" cy="220" r="7" fill="#1e3a5f" stroke="#3b82f6" stroke-width="2"/>
    <text x="122" y="215" fill="#93c5fd" font-size="13" font-weight="700">7</text>
  </g>

  <!-- base point Y -->
  <circle cx="150" cy="340" r="8" fill="#34d399"/>
  <text x="138" y="368" fill="#6ee7b7" font-size="12" font-weight="700">Y (최하단)</text>

  <text x="340" y="400" text-anchor="middle" fill="#94a3b8" font-size="12">정렬된 순서 1→2→…→7로 도는 것이 Y를 도는 반시계 한 바퀴가 된다</text>
</svg>
