<svg viewBox="0 0 680 420" width="1020" height="630" xmlns="http://www.w3.org/2000/svg" font-family="system-ui,-apple-system,sans-serif">
  <rect width="680" height="420" rx="10" fill="#0f1117"/>
  <defs>
    <marker id="lb-o" markerWidth="9" markerHeight="9" refX="7" refY="4.5" orient="auto">
      <path d="M0,0 L9,4.5 L0,9 Z" fill="#fbbf24"/>
    </marker>
    <marker id="lb-b" markerWidth="9" markerHeight="9" refX="7" refY="4.5" orient="auto">
      <path d="M0,0 L9,4.5 L0,9 Z" fill="#3b82f6"/>
    </marker>
  </defs>

  <text x="340" y="30" text-anchor="middle" fill="#e2e8f0" font-size="15" font-weight="600">정렬을 볼록 껍질로 풀기 — 하한의 근거</text>
  <text x="340" y="50" text-anchor="middle" fill="#64748b" font-size="11">숫자를 원 위의 점으로 바꾸면, 껍질의 꼭짓점 순서가 곧 정렬 결과다</text>

  <!-- input numbers -->
  <text x="100" y="105" text-anchor="middle" fill="#94a3b8" font-size="12" font-weight="600">정렬할 숫자</text>
  <g>
    <rect x="70" y="120" width="60" height="30" rx="5" fill="#1e3a5f" stroke="#3b82f6" stroke-width="1.5"/>
    <text x="100" y="141" text-anchor="middle" fill="#93c5fd" font-size="14" font-weight="700">3</text>
    <rect x="70" y="160" width="60" height="30" rx="5" fill="#1e3a5f" stroke="#3b82f6" stroke-width="1.5"/>
    <text x="100" y="181" text-anchor="middle" fill="#93c5fd" font-size="14" font-weight="700">1</text>
    <rect x="70" y="200" width="60" height="30" rx="5" fill="#1e3a5f" stroke="#3b82f6" stroke-width="1.5"/>
    <text x="100" y="221" text-anchor="middle" fill="#93c5fd" font-size="14" font-weight="700">4</text>
    <rect x="70" y="240" width="60" height="30" rx="5" fill="#1e3a5f" stroke="#3b82f6" stroke-width="1.5"/>
    <text x="100" y="261" text-anchor="middle" fill="#93c5fd" font-size="14" font-weight="700">2</text>
  </g>

  <!-- transform arrow -->
  <line x1="150" y1="195" x2="255" y2="195" stroke="#3b82f6" stroke-width="2" marker-end="url(#lb-b)"/>
  <text x="202" y="180" text-anchor="middle" fill="#93c5fd" font-size="11">v ↦ 각도 v·2π/5</text>
  <text x="202" y="216" text-anchor="middle" fill="#64748b" font-size="10">(원 위의 점으로)</text>

  <!-- circle -->
  <circle cx="430" cy="230" r="120" fill="none" stroke="#334155" stroke-width="1.5" stroke-dasharray="5 4"/>

  <!-- hull (= all points, CCW order 1,2,3,4) -->
  <polygon points="467,116 333,159 333,301 467,344"
           fill="#34d39914" stroke="#34d399" stroke-width="2.5"/>

  <!-- CCW arrow along hull -->
  <path d="M 505 140 A 132 132 0 0 0 352 130" fill="none" stroke="#fbbf24" stroke-width="2" marker-end="url(#lb-o)"/>
  <text x="438" y="88" text-anchor="middle" fill="#fbbf24" font-size="11" font-weight="600">껍질을 반시계로 읽는다</text>

  <!-- points on circle -->
  <g>
    <circle cx="467" cy="116" r="7" fill="#1e3a5f" stroke="#3b82f6" stroke-width="2"/>
    <text x="485" y="112" fill="#93c5fd" font-size="13" font-weight="700">1</text>
    <circle cx="333" cy="159" r="7" fill="#1e3a5f" stroke="#3b82f6" stroke-width="2"/>
    <text x="303" y="155" fill="#93c5fd" font-size="13" font-weight="700">2</text>
    <circle cx="333" cy="301" r="7" fill="#1e3a5f" stroke="#3b82f6" stroke-width="2"/>
    <text x="303" y="313" fill="#93c5fd" font-size="13" font-weight="700">3</text>
    <circle cx="467" cy="344" r="7" fill="#1e3a5f" stroke="#3b82f6" stroke-width="2"/>
    <text x="485" y="356" fill="#93c5fd" font-size="13" font-weight="700">4</text>
  </g>

  <!-- result -->
  <text x="612" y="205" text-anchor="middle" fill="#94a3b8" font-size="12" font-weight="600">껍질 순회</text>
  <text x="612" y="228" text-anchor="middle" fill="#6ee7b7" font-size="14" font-weight="700">1→2→3→4</text>
  <text x="612" y="250" text-anchor="middle" fill="#94a3b8" font-size="11">= 정렬 결과</text>

  <text x="340" y="400" text-anchor="middle" fill="#94a3b8" font-size="12">원 위의 점은 전부 껍질 꼭짓점 — 껍질이 각도 순서, 즉 원래 숫자의 크기 순서를 돌려준다</text>
</svg>
