<svg viewBox="0 0 680 420" width="1020" height="630" xmlns="http://www.w3.org/2000/svg" font-family="system-ui,-apple-system,sans-serif">
  <rect width="680" height="420" rx="10" fill="#0f1117"/>
  <defs>
    <marker id="sp-g" markerWidth="9" markerHeight="9" refX="7" refY="4.5" orient="auto">
      <path d="M0,0 L9,4.5 L0,9 Z" fill="#34d399"/>
    </marker>
  </defs>

  <text x="340" y="30" text-anchor="middle" fill="#e2e8f0" font-size="15" font-weight="600">Graham Scan — 좌회전이면 push</text>
  <text x="340" y="50" text-anchor="middle" fill="#64748b" font-size="11">스택 위 두 점과 새 점이 좌회전이면 새 점을 스택에 쌓는다</text>

  <!-- path so far: Y -> 1 -> 2, candidate 2 -> 3 -->
  <line x1="150" y1="340" x2="540" y2="320" stroke="#34d399" stroke-width="2.5"/>
  <line x1="540" y1="320" x2="520" y2="250" stroke="#34d399" stroke-width="2.5"/>
  <line x1="520" y1="250" x2="460" y2="150" stroke="#34d399" stroke-width="2.5" stroke-dasharray="6 5" marker-end="url(#sp-g)"/>

  <!-- left-turn arc at point 2 -->
  <path d="M 528 278 A 30 30 0 0 0 504 224" fill="none" stroke="#fbbf24" stroke-width="2"/>
  <text x="560" y="215" fill="#fbbf24" font-size="12" font-weight="600">좌회전 → push</text>

  <!-- remaining points (gray) -->
  <g fill="#64748b">
    <circle cx="360" cy="120" r="5"/>
    <circle cx="280" cy="190" r="5"/>
    <circle cx="230" cy="160" r="5"/>
    <circle cx="140" cy="220" r="5"/>
  </g>

  <!-- stacked points -->
  <circle cx="150" cy="340" r="8" fill="#34d399"/>
  <text x="140" y="368" fill="#6ee7b7" font-size="12" font-weight="700">Y</text>
  <circle cx="540" cy="320" r="7" fill="#1e3a5f" stroke="#3b82f6" stroke-width="2"/>
  <text x="558" y="325" fill="#93c5fd" font-size="13" font-weight="700">1</text>
  <circle cx="520" cy="250" r="7" fill="#1e3a5f" stroke="#3b82f6" stroke-width="2"/>
  <text x="540" y="255" fill="#93c5fd" font-size="13" font-weight="700">2</text>
  <circle cx="460" cy="150" r="7" fill="#34d399"/>
  <text x="476" y="145" fill="#6ee7b7" font-size="13" font-weight="700">3 (새 점)</text>

  <!-- stack visual -->
  <g>
    <text x="80" y="120" fill="#94a3b8" font-size="12" font-weight="600">스택</text>
    <rect x="60" y="132" width="64" height="26" rx="4" fill="#0b3b2e" stroke="#34d399" stroke-width="1.5"/>
    <text x="92" y="150" text-anchor="middle" fill="#6ee7b7" font-size="12" font-weight="700">3 ← push</text>
    <rect x="60" y="162" width="64" height="26" rx="4" fill="#1e3a5f" stroke="#3b82f6" stroke-width="1.5"/>
    <text x="92" y="180" text-anchor="middle" fill="#93c5fd" font-size="12">2</text>
    <rect x="60" y="192" width="64" height="26" rx="4" fill="#1e3a5f" stroke="#3b82f6" stroke-width="1.5"/>
    <text x="92" y="210" text-anchor="middle" fill="#93c5fd" font-size="12">1</text>
    <rect x="60" y="222" width="64" height="26" rx="4" fill="#1e3a5f" stroke="#3b82f6" stroke-width="1.5"/>
    <text x="92" y="240" text-anchor="middle" fill="#93c5fd" font-size="12">Y</text>
  </g>

  <text x="340" y="400" text-anchor="middle" fill="#94a3b8" font-size="12">1→2 방향에서 2→3이 왼쪽으로 꺾이므로(ccw &gt; 0) 3을 push한다</text>
</svg>
