<svg viewBox="0 0 680 420" width="1020" height="630" xmlns="http://www.w3.org/2000/svg" font-family="system-ui,-apple-system,sans-serif">
  <rect width="680" height="420" rx="10" fill="#0f1117"/>

  <text x="340" y="30" text-anchor="middle" fill="#e2e8f0" font-size="15" font-weight="600">스캔 완료 — 스택에 남은 점이 볼록 껍질</text>
  <text x="340" y="50" text-anchor="middle" fill="#64748b" font-size="11">모든 점을 한 번씩 처리하면 스택에는 껍질 꼭짓점만 반시계 순서로 남는다</text>

  <!-- hull polygon: Y-1-2-3-4-6-7 -->
  <polygon points="150,340 540,320 520,250 460,150 360,120 230,160 140,220"
           fill="#34d39914" stroke="#34d399" stroke-width="2.5"/>

  <!-- interior point 5 -->
  <circle cx="280" cy="190" r="6" fill="#64748b"/>
  <text x="294" y="196" fill="#94a3b8" font-size="11">5 (안쪽 — pop됨)</text>

  <!-- hull vertices -->
  <circle cx="150" cy="340" r="8" fill="#34d399"/>
  <text x="140" y="368" fill="#6ee7b7" font-size="12" font-weight="700">Y</text>
  <g>
    <circle cx="540" cy="320" r="7" fill="#1e3a5f" stroke="#3b82f6" stroke-width="2"/>
    <text x="558" y="325" fill="#93c5fd" font-size="13" font-weight="700">1</text>
    <circle cx="520" cy="250" r="7" fill="#1e3a5f" stroke="#3b82f6" stroke-width="2"/>
    <text x="540" y="255" fill="#93c5fd" font-size="13" font-weight="700">2</text>
    <circle cx="460" cy="150" r="7" fill="#1e3a5f" stroke="#3b82f6" stroke-width="2"/>
    <text x="476" y="145" fill="#93c5fd" font-size="13" font-weight="700">3</text>
    <circle cx="360" cy="120" r="7" fill="#1e3a5f" stroke="#3b82f6" stroke-width="2"/>
    <text x="360" y="105" text-anchor="middle" fill="#93c5fd" font-size="13" font-weight="700">4</text>
    <circle cx="230" cy="160" r="7" fill="#1e3a5f" stroke="#3b82f6" stroke-width="2"/>
    <text x="226" y="145" text-anchor="middle" fill="#93c5fd" font-size="13" font-weight="700">6</text>
    <circle cx="140" cy="220" r="7" fill="#1e3a5f" stroke="#3b82f6" stroke-width="2"/>
    <text x="122" y="215" fill="#93c5fd" font-size="13" font-weight="700">7</text>
  </g>

  <text x="340" y="400" text-anchor="middle" fill="#94a3b8" font-size="12">최종 스택 [Y, 1, 2, 3, 4, 6, 7] — 각 점은 최대 한 번 push, 한 번 pop되므로 스캔은 O(N)</text>
</svg>
