<svg viewBox="0 0 680 420" width="1020" height="630" xmlns="http://www.w3.org/2000/svg" font-family="system-ui,-apple-system,sans-serif">
  <rect width="680" height="420" rx="10" fill="#0f1117"/>
  <defs>
    <marker id="pp-g" markerWidth="9" markerHeight="9" refX="7" refY="4.5" orient="auto">
      <path d="M0,0 L9,4.5 L0,9 Z" fill="#34d399"/>
    </marker>
  </defs>

  <text x="340" y="30" text-anchor="middle" fill="#e2e8f0" font-size="15" font-weight="600">Graham Scan — 우회전이면 pop</text>
  <text x="340" y="50" text-anchor="middle" fill="#64748b" font-size="11">우회전이 나오면 좌회전이 될 때까지 스택에서 점을 뺀다</text>

  <!-- confirmed path: Y -> 1 -> 2 -> 3 -> 4 -->
  <g stroke="#34d399" stroke-width="2.5">
    <line x1="150" y1="340" x2="540" y2="320"/>
    <line x1="540" y1="320" x2="520" y2="250"/>
    <line x1="520" y1="250" x2="460" y2="150"/>
    <line x1="460" y1="150" x2="360" y2="120"/>
  </g>

  <!-- rejected detour through 5 (red dashed) -->
  <line x1="360" y1="120" x2="280" y2="190" stroke="#ef4444" stroke-width="2" stroke-dasharray="6 5"/>
  <line x1="280" y1="190" x2="230" y2="160" stroke="#ef4444" stroke-width="2" stroke-dasharray="6 5"/>
  <text x="322" y="185" fill="#f87171" font-size="12" font-weight="600">우회전!</text>

  <!-- corrected edge after pop -->
  <line x1="360" y1="120" x2="230" y2="160" stroke="#34d399" stroke-width="2.5" stroke-dasharray="6 5" marker-end="url(#pp-g)"/>

  <!-- popped point 5 -->
  <circle cx="280" cy="190" r="7" fill="#1f2937" stroke="#ef4444" stroke-width="2"/>
  <line x1="271" y1="181" x2="289" y2="199" stroke="#ef4444" stroke-width="2"/>
  <line x1="289" y1="181" x2="271" y2="199" stroke="#ef4444" stroke-width="2"/>
  <text x="290" y="215" fill="#f87171" font-size="12" font-weight="700">5 → pop</text>

  <!-- other points -->
  <circle cx="150" cy="340" r="8" fill="#34d399"/>
  <text x="140" y="368" fill="#6ee7b7" font-size="12" font-weight="700">Y</text>
  <g>
    <circle cx="540" cy="320" r="7" fill="#1e3a5f" stroke="#3b82f6" stroke-width="2"/>
    <text x="558" y="325" fill="#93c5fd" font-size="13" font-weight="700">1</text>
    <circle cx="520" cy="250" r="7" fill="#1e3a5f" stroke="#3b82f6" stroke-width="2"/>
    <text x="540" y="255" fill="#93c5fd" font-size="13" font-weight="700">2</text>
    <circle cx="460" cy="150" r="7" fill="#1e3a5f" stroke="#3b82f6" stroke-width="2"/>
    <text x="476" y="145" fill="#93c5fd" font-size="13" font-weight="700">3</text>
    <circle cx="360" cy="120" r="7" fill="#1e3a5f" stroke="#3b82f6" stroke-width="2"/>
    <text x="360" y="105" text-anchor="middle" fill="#93c5fd" font-size="13" font-weight="700">4</text>
  </g>
  <circle cx="230" cy="160" r="7" fill="#34d399"/>
  <text x="226" y="145" text-anchor="middle" fill="#6ee7b7" font-size="13" font-weight="700">6 (새 점)</text>
  <circle cx="140" cy="220" r="5" fill="#64748b"/>

  <!-- stack visual -->
  <g>
    <text x="80" y="90" fill="#94a3b8" font-size="12" font-weight="600">스택</text>
    <rect x="60" y="102" width="64" height="24" rx="4" fill="#1f2937" stroke="#ef4444" stroke-width="1.5" stroke-dasharray="4 3"/>
    <text x="92" y="119" text-anchor="middle" fill="#f87171" font-size="12">5 → pop</text>
    <rect x="60" y="130" width="64" height="24" rx="4" fill="#1e3a5f" stroke="#3b82f6" stroke-width="1.5"/>
    <text x="92" y="147" text-anchor="middle" fill="#93c5fd" font-size="12">4</text>
    <rect x="60" y="158" width="64" height="24" rx="4" fill="#1e3a5f" stroke="#3b82f6" stroke-width="1.5"/>
    <text x="92" y="175" text-anchor="middle" fill="#93c5fd" font-size="12">3</text>
    <rect x="60" y="186" width="64" height="24" rx="4" fill="#1e3a5f" stroke="#3b82f6" stroke-width="1.5"/>
    <text x="92" y="203" text-anchor="middle" fill="#93c5fd" font-size="12">2</text>
    <rect x="60" y="214" width="64" height="24" rx="4" fill="#1e3a5f" stroke="#3b82f6" stroke-width="1.5"/>
    <text x="92" y="231" text-anchor="middle" fill="#93c5fd" font-size="12">1</text>
    <rect x="60" y="242" width="64" height="24" rx="4" fill="#1e3a5f" stroke="#3b82f6" stroke-width="1.5"/>
    <text x="92" y="259" text-anchor="middle" fill="#93c5fd" font-size="12">Y</text>
  </g>

  <text x="340" y="400" text-anchor="middle" fill="#94a3b8" font-size="12">4→5에서 5→6이 오른쪽으로 꺾이므로 5를 pop — 4→6은 좌회전이라 여기서 멈춘다</text>
</svg>
